<svg width="435.1655029296875px" height="224.11764526367188px" xmlns="http://www.w3.org/2000/svg" viewBox="32.41724853515626 -37.05882263183594 435.1655029296875 224.11764526367188" style="background: rgba(0, 0, 0, 0);" preserveAspectRatio="xMidYMid"><filter id="editing-goldstamp"><feFlood flood-color="#000000" result="flood"></feFlood><feMorphology operator="dilate" radius="1" in="SourceGraphic" result="outline"></feMorphology><feComposite operator="in" in="flood" in2="outline" result="outline2"></feComposite><feGaussianBlur stdDeviation="4" in="SourceAlpha" result="blur"></feGaussianBlur><feSpecularLighting surfaceScale="2" specularConstant="0.7" specularExponent="10" lighting-color="#white" in="blur" result="specular"><fePointLight x="200" y="-1000" z="300"></fePointLight></feSpecularLighting><feComposite operator="in" in="specular" in2="SourceGraphic" result="specular2"></feComposite><feComposite in="SourceGraphic" in2="specular2" operator="arithmetic" k1="3" k2="2" k3="1" k4="0" result="specular3"></feComposite><feMerge><feMergeNode in="outline2"></feMergeNode><feMergeNode in="specular3"></feMergeNode></feMerge></filter><g filter="url(#editing-goldstamp)"><g transform="translate(97.35997295379639, 131.5450060106814)"><path d="M11.72-39.84L11.72-39.84L11.72-39.84Q11.72-51.74 3.87-51.56L3.87-51.56L3.87-55.66L3.87-55.66Q11.48-55.43 11.72-69.84L11.72-69.84L11.72-69.84Q11.72-71.95 11.72-76.20L11.72-76.20L11.72-76.20Q11.72-80.45 13.54-85.96L13.54-85.96L13.54-85.96Q15.35-91.46 18.87-95.39L18.87-95.39L18.87-95.39Q26.25-103.71 39.26-103.71L39.26-103.71L39.26-103.71Q40.25-103.24 41.13-101.69L41.13-101.69L41.13-101.69Q42.01-100.14 42.19-99.61L42.19-99.61L42.19-99.61Q32.99-99.61 29.30-94.10L29.30-94.10L29.30-94.10Q25.78-88.89 25.78-76.17L25.78-76.17L25.78-76.17Q25.78-58.36 15.76-53.79L15.76-53.79L15.76-53.79Q22.32-51.50 24.61-45.12L24.61-45.12L24.61-45.12Q25.78-41.89 25.78-34.19L25.78-34.19L25.78-34.19Q25.78-26.48 26.57-19.48L26.57-19.48L26.57-19.48Q27.36-12.48 29.38-7.56L29.38-7.56L29.38-7.56Q31.41-2.64 34.92 0.53L34.92 0.53L34.92 0.53Q38.44 3.69 43.95 5.86L43.95 5.86L43.95 5.86Q42.95 7.97 41.02 9.38L41.02 9.38L41.02 9.38Q29.94 9.38 21.62-1.76L21.62-1.76L21.62-1.76Q11.72-14.88 11.72-39.84ZM112.97 0L92.52 0L92.52 0Q93.28-3.69 93.28-5.89L93.28-5.89L93.28-5.89Q93.28-8.09 93.19-9.20L93.19-9.20L93.19-9.20Q93.11-10.31 92.96-11.57L92.96-11.57L92.96-11.57Q92.81-12.83 92.61-14.38L92.61-14.38L92.61-14.38Q92.40-15.94 92.23-17.99L92.23-17.99L92.23-17.99Q90.88-31.99 82.68-41.02L82.68-41.02L82.68-41.02Q79.04-45 74.82-47.08L74.82-47.08L74.82-47.08Q70.61-49.16 67.88-49.16L67.88-49.16L67.88-49.16Q65.16-49.16 63.69-48.81L63.69-48.81L63.69-48.81Q60.41-38.96 60.41-28.24L60.41-28.24L60.41-28.24Q60.41-18.75 61.41-14.06L61.41-14.06L61.41-14.06Q62.99-7.03 66.27 0.06L66.27 0.06L48.75 0.06L48.75 0.06Q50.16-3.46 50.16-14.74L50.16-14.74L50.16-14.74Q50.16-26.02 51.86-35.83L51.86-35.83L51.86-35.83Q53.55-45.64 56.28-53.32L56.28-53.32L56.28-53.32Q59.00-61.00 62.37-66.77L62.37-66.77L62.37-66.77Q65.74-72.54 69.11-76.85L69.11-76.85L69.11-76.85Q72.48-81.15 75.47-84.23L75.47-84.23L75.47-84.23Q78.46-87.30 80.45-89.65L80.45-89.65L98.91-89.65L98.91-89.65Q96.39-86.78 96.39-81.62L96.39-81.62L96.39-81.62Q96.39-79.28 97.15-73.95L97.15-73.95L98.61-63.28L98.61-63.28Q106.64-7.97 112.97 0L112.97 0ZM66.09-55.02L66.09-55.02L66.09-55.02Q68.38-55.90 70.90-55.90L70.90-55.90L70.90-55.90Q73.42-55.90 75.44-55.55L75.44-55.55L75.44-55.55Q77.46-55.20 79.45-54.38L79.45-54.38L79.45-54.38Q83.73-52.73 86.60-49.16L86.60-49.16L86.60-49.16Q83.73-64.22 83.09-67.56L83.09-67.56L81.04-77.81L77.70-73.83L77.70-73.83Q70.66-65.39 66.09-55.02ZM123.63-9.43L123.63-9.43L123.63-9.43Q123.63-13.54 126.39-16.52L126.39-16.52L126.39-16.52Q129.14-19.45 133.07-19.45L133.07-19.45L133.07-19.45Q136.99-19.45 139.75-16.52L139.75-16.52L139.75-16.52Q142.50-13.54 142.50-9.43L142.50-9.43L142.50-9.43Q142.50-5.21 139.75-2.34L139.75-2.34L139.75-2.34Q136.93 0.59 133.07 0.59L133.07 0.59L133.07 0.59Q129.20 0.59 126.39-2.34L126.39-2.34L126.39-2.34Q123.63-5.21 123.63-9.43ZM200.71-76.70L200.71-76.70L200.71-76.70Q201.86-79.16 202.47-81.56L202.47-81.56L202.47-81.56Q203.09-83.96 203.09-86.22L203.09-86.22L203.09-86.22Q203.09-88.48 202.21-89.71L202.21-89.71L220.31-89.71L220.31-89.71Q218.96-87.77 218.03-85.43L218.03-85.43L215.86-80.10L215.86-80.10Q210.53-67.21 200.33-60.70L200.33-60.70L200.33-60.70Q200.98-41.13 208.71-23.79L208.71-23.79L208.71-23.79Q215.68-7.91 225.12 0L225.12 0L204.90 0L204.90 0Q196.76-8.67 193.36-31.52L193.36-31.52L193.36-31.52Q192.07-39.90 191.19-51.21L191.19-51.21L191.19-51.21Q190.96-54.20 189.40-55.81L189.40-55.81L189.40-55.81Q187.85-57.42 185.04-57.42L185.04-57.42L185.04-57.42Q182.23-57.42 181.11-56.89L181.11-56.89L181.11-56.89Q180-56.37 179.41-55.31L179.41-55.31L179.41-55.31Q178.42-53.50 178.42-46.88L178.42-46.88L178.42-46.88Q178.42-8.73 180.29-2.46L180.29-2.46L180.29-2.46Q180.64-1.29 181.17 0L181.17 0L161.54 0L161.54 0Q163.42-4.45 163.74-7.44L163.74-7.44L163.74-7.44Q164.06-10.43 164.30-13.83L164.30-13.83L164.30-13.83Q164.77-20.74 164.77-32.40L164.77-32.40L164.77-32.40Q164.77-46.41 164.30-58.07L164.30-58.07L163.65-74.18L163.65-74.18Q163.30-83.03 161.43-86.66L161.43-86.66L161.43-86.66Q160.66-88.13 159.55-89.65L159.55-89.65L182.52-89.65L182.52-89.65Q180.18-86.60 179.47-83.96L179.47-83.96L179.47-83.96Q178.42-79.69 178.42-75.44L178.42-75.44L178.42-75.44Q178.42-71.19 178.59-69.32L178.59-69.32L178.59-69.32Q178.77-67.44 179.41-66.21L179.41-66.21L179.41-66.21Q180.76-63.87 184.22-63.84L184.22-63.84L184.22-63.84Q187.68-63.81 189.99-64.89L189.99-64.89L189.99-64.89Q192.30-65.98 194.30-67.79L194.30-67.79L194.30-67.79Q196.29-69.61 197.93-71.92L197.93-71.92L197.93-71.92Q199.57-74.24 200.71-76.70ZM231.09-9.43L231.09-9.43L231.09-9.43Q231.09-13.54 233.85-16.52L233.85-16.52L233.85-16.52Q236.60-19.45 240.53-19.45L240.53-19.45L240.53-19.45Q244.45-19.45 247.21-16.52L247.21-16.52L247.21-16.52Q249.96-13.54 249.96-9.43L249.96-9.43L249.96-9.43Q249.96-5.21 247.21-2.34L247.21-2.34L247.21-2.34Q244.39 0.59 240.53 0.59L240.53 0.59L240.53 0.59Q236.66 0.59 233.85-2.34L233.85-2.34L233.85-2.34Q231.09-5.21 231.09-9.43ZM293.55-39.84L293.55-39.84L293.55-39.84Q293.55-51.74 301.41-51.56L301.41-51.56L301.41-55.66L301.41-55.66Q293.79-55.43 293.55-69.84L293.55-69.84L293.55-69.84Q293.55-71.95 293.55-76.20L293.55-76.20L293.55-76.20Q293.55-80.45 291.74-85.96L291.74-85.96L291.74-85.96Q289.92-91.46 286.41-95.39L286.41-95.39L286.41-95.39Q279.02-103.71 266.02-103.71L266.02-103.71L266.02-103.71Q265.02-103.24 264.14-101.69L264.14-101.69L264.14-101.69Q263.26-100.14 263.09-99.61L263.09-99.61L263.09-99.61Q272.29-99.61 275.98-94.10L275.98-94.10L275.98-94.10Q279.49-88.89 279.49-76.17L279.49-76.17L279.49-76.17Q279.49-58.36 289.51-53.79L289.51-53.79L289.51-53.79Q282.95-51.50 280.66-45.12L280.66-45.12L280.66-45.12Q279.49-41.89 279.49-34.19L279.49-34.19L279.49-34.19Q279.49-26.48 278.70-19.48L278.70-19.48L278.70-19.48Q277.91-12.48 275.89-7.56L275.89-7.56L275.89-7.56Q273.87-2.64 270.35 0.53L270.35 0.53L270.35 0.53Q266.84 3.69 261.33 5.86L261.33 5.86L261.33 5.86Q262.32 7.97 264.26 9.38L264.26 9.38L264.26 9.38Q275.33 9.38 283.65-1.76L283.65-1.76L283.65-1.76Q293.55-14.88 293.55-39.84Z" fill="#656245"></path></g></g><style>text {
  font-size: 64px;
  font-family: Arial Black;
  dominant-baseline: central;
  text-anchor: middle;
}</style></svg>